<?xml version="1.0" encoding="utf-8"?>
<!-- Generator: Adobe Illustrator 19.1.0, SVG Export Plug-In . SVG Version: 6.00 Build 0)  -->
<svg version="1.1" xmlns="http://www.w3.org/2000/svg" xmlns:xlink="http://www.w3.org/1999/xlink" x="0px" y="0px"
	 viewBox="0 0 586 140.5" style="enable-background:new 0 0 586 140.5;" xml:space="preserve">
<style type="text/css">
	.st0{fill-rule:evenodd;clip-rule:evenodd;fill:#3B5998;}
	.st1{fill-rule:evenodd;clip-rule:evenodd;fill:#FFFFFF;}
	.st2{fill:#FFFFFF;}
	.st3{font-family:'HelveticaNeue-Medium';}
	.st4{font-size:39px;}
	.st5{font-family:'HelveticaNeue-Light';}
</style>
<g id="Background_xA0_Image_1_">
</g>
<g id="Facebook_1_">
	<g id="Button__x28_Pressed_x29__1_">
		<g id="Login_with_Facebook_1_">
		</g>
	</g>
	<g id="Button_3_">
		<g id="Button_1_">
			<g>
				<path class="st0" d="M570,5.5H10c-5.5,0-10,4.5-10,10v104c0,5.5,4.5,10,10,10h560c5.5,0,10-4.5,10-10v-104
					C580,10,575.5,5.5,570,5.5z"/>
			</g>
		</g>
		<g id="Facebook_Logo_1_">
			<g>
				<path class="st1" d="M90.5,35.5H33.5c-2,0-3.5,1.6-3.5,3.5V96c0,2,1.6,3.5,3.5,3.5h30.7V74.7h-8.4v-9.6h8.4v-7.1
					c0-8.3,5-12.7,12.4-12.7c3.5,0,6.6,0.2,7.5,0.4v8.6l-5.1,0c-4,0-4.8,1.9-4.8,4.7v6.2h9.5l-1.2,9.6h-8.3v24.8h16.3
					c2,0,3.5-1.6,3.5-3.5V39C94,37.1,92.4,35.5,90.5,35.5z"/>
			</g>
		</g>
		<g id="Login_with_Facebook">
			<text transform="matrix(1 0 0 1 153.4429 82.4575)"><tspan x="0" y="0" class="st2 st3 st4">L</tspan><tspan x="22" y="0" class="st2 st3 st4">og</tspan><tspan x="68" y="0" class="st2 st3 st4">i</tspan><tspan x="77" y="0" class="st2 st3 st4">n</tspan><tspan x="99" y="0" class="st2 st3 st4"> </tspan><tspan x="109.2" y="0" class="st2 st5 st4">w</tspan><tspan x="138.2" y="0" class="st2 st5 st4">i</tspan><tspan x="145.2" y="0" class="st2 st5 st4">t</tspan><tspan x="157.2" y="0" class="st2 st5 st4">h</tspan><tspan x="178.2" y="0" class="st2 st5 st4"> </tspan><tspan x="189.2" y="0" class="st2 st3 st4">F</tspan><tspan x="212.2" y="0" class="st2 st3 st4">ace</tspan><tspan x="278.2" y="0" class="st2 st3 st4">b</tspan><tspan x="302.2" y="0" class="st2 st3 st4">oo</tspan><tspan x="348.2" y="0" class="st2 st3 st4">k</tspan></text>
		</g>
	</g>
</g>
</svg>
